# xmcd
#
# Track frame offsets: 
#        150
#        12391
#        19697
#        26807
#        32316
#        47090
#        72332
#        94259
#        115103
#        123337
#        134060
#        144332
#        166312
#        181410
#        190174
#        198291
#        203594
#        216519
#        226528
#        247674
#        255166
#
# Disc length: 3647 seconds
#
# Revision: 0
# Processed by: cddbd v1.5.2PL0 Copyright (c) Steve Scherf et al.
# Submitted via: ExactAudioCopyFreeDBPlugin 1.0
#
DISCID=170e3d15
DTITLE=Willie Nelson - 2001-07-14 Red Rocks
DYEAR=1900
DGENRE=Country
TTITLE0=City Of New Orleans
TTITLE1=Too All The Girls I've Loved Before
TTITLE2=Luchenbach, Texas
TTITLE3=Whiskey River
TTITLE4=Still Is Still Moving To Me
TTITLE5=Milk Cow Blues
TTITLE6=Pancho And Lefty
TTITLE7=The Great Divide
TTITLE8=My Bucket's Got A Hole In It
TTITLE9=Jambalaya
TTITLE10=Hey Good Lookin'
TTITLE11=Rainbow Connection
TTITLE12=Movin' On Over
TTITLE13=I Gotta Get Drunk
TTITLE14=Rollin' In My Sweet Baby's Arms
TTITLE15=Good Ol' Mountain Dew
TTITLE16=Blue Eyes Cryin' In The Rain
TTITLE17=Please Don't Talk About Me When I'm Gone
TTITLE18=Till I Gain Control Again
TTITLE19=Sweet Georgia Brown
TTITLE20=Just Because
EXTD=
EXTT0=
EXTT1=
EXTT2=
EXTT3=
EXTT4=
EXTT5=
EXTT6=
EXTT7=
EXTT8=
EXTT9=
EXTT10=
EXTT11=
EXTT12=
EXTT13=
EXTT14=
EXTT15=
EXTT16=
EXTT17=
EXTT18=
EXTT19=
EXTT20=
PLAYORDER=
